<svg xmlns="http://www.w3.org/2000/svg" width="299.111" height="110.173" viewBox="121.613 81.342 299.111 110.173"><g data-name="Logo_AASW_RGB"><g data-name="Group 277"><g data-name="Group 275" transform="translate(69.89 -6)" clip-path="url(&quot;#a&quot;)"><path d="M105.912 88.351c0-.64-1.01-1.479-1.988-.686l.025-.036-.06.062c-.028.023-.054.034-.084.06l-.065.087c-1.26 1.26-43.825 43.594-43.825 43.594-.033.031-.07.05-.102.083l-7.321 7.322c-1.06 1.06-1.02 2.818.087 3.924l40.312 40.312c1.106 1.105 2.864 1.147 3.924.086l7.322-7.32c1.058-1.061 1.02-2.82-.087-3.926L74.918 142.78v-.013c-1.106-1.108-1.145-2.865-.085-3.925l13.647-13.59-.02-.006c.028-.027.054-.038.082-.06l.061-.062-.027.035c.94-.76 1.97-.021 2.048.605v14.525c0 1.567 1.176 2.836 2.629 2.836h10.03c1.452 0 2.629-1.269 2.629-2.836V88.351Z" fill="#00688f" fill-rule="evenodd" data-name="Path 837"></path><path d="m184.07 132.611-.97-2.549h-8.253l-.967 2.605c-.382 1.017-.703 1.7-.972 2.056-.267.355-.707.534-1.316.534-.516 0-.973-.189-1.371-.57-.396-.377-.595-.806-.595-1.286a2.9 2.9 0 0 1 .14-.859c.092-.296.243-.706.455-1.232l5.194-13.184.532-1.364c.209-.531.432-.972.666-1.323.237-.35.546-.635.928-.852.383-.216.857-.325 1.418-.325.576 0 1.052.109 1.436.325.382.217.691.497.927.838.235.342.434.709.595 1.102.162.391.368.915.616 1.571l5.305 13.1c.415.997.624 1.722.624 2.175 0 .47-.198.902-.59 1.295a1.935 1.935 0 0 1-1.42.59c-.323 0-.6-.059-.83-.175a1.722 1.722 0 0 1-.582-.47c-.157-.2-.324-.504-.505-.914-.18-.411-.335-.774-.465-1.088m-8.143-5.636h6.066l-3.06-8.38-3.006 8.38Z" fill="#aa243f" fill-rule="evenodd" data-name="Path 838"></path><path d="m203.73 132.611-.97-2.549h-8.254l-.97 2.605c-.378 1.017-.7 1.7-.97 2.056-.267.355-.705.534-1.315.534-.517 0-.973-.189-1.37-.57-.398-.377-.597-.806-.597-1.286a2.9 2.9 0 0 1 .14-.859c.092-.296.245-.706.457-1.232l5.192-13.184c.147-.379.325-.834.533-1.364.21-.531.43-.972.665-1.323.235-.35.546-.635.93-.852.381-.216.855-.325 1.416-.325.574 0 1.051.109 1.435.325.383.217.69.497.928.838.237.342.434.709.595 1.102.162.391.367.915.617 1.571l5.303 13.1c.415.997.625 1.722.625 2.175 0 .47-.198.902-.588 1.295a1.938 1.938 0 0 1-1.422.59c-.321 0-.6-.059-.829-.175a1.694 1.694 0 0 1-.581-.47c-.158-.2-.327-.504-.506-.914a55.46 55.46 0 0 1-.464-1.088m-8.143-5.636h6.064l-3.059-8.38-3.005 8.38Z" fill="#aa243f" fill-rule="evenodd" data-name="Path 839"></path><path d="M225.317 128.817c0 1.227-.317 2.33-.949 3.31-.632.977-1.557 1.745-2.777 2.299-1.217.553-2.663.83-4.334.83-2.002 0-3.655-.378-4.959-1.135a6.597 6.597 0 0 1-2.247-2.182c-.579-.909-.868-1.792-.868-2.651 0-.499.174-.926.518-1.282.35-.355.79-.533 1.326-.533.431 0 .8.14 1.1.417.3.275.556.687.767 1.232.26.645.538 1.185.837 1.62.302.434.723.791 1.27 1.073.544.282 1.258.423 2.145.423 1.22 0 2.21-.284 2.971-.852.76-.568 1.143-1.277 1.143-2.125 0-.675-.206-1.223-.618-1.641-.41-.422-.942-.743-1.59-.964-.652-.22-1.524-.456-2.612-.705-1.459-.342-2.679-.742-3.665-1.2-.981-.456-1.76-1.08-2.338-1.868-.578-.79-.866-1.77-.866-2.943 0-1.116.305-2.11.914-2.978.61-.868 1.492-1.535 2.646-2 1.153-.467 2.51-.7 4.07-.7 1.246 0 2.327.154 3.235.464.908.31 1.664.72 2.262 1.233.604.512 1.041 1.049 1.318 1.612.276.564.414 1.114.414 1.648 0 .49-.172.93-.519 1.323a1.651 1.651 0 0 1-1.294.589c-.472 0-.83-.118-1.072-.353-.246-.236-.512-.622-.799-1.158-.367-.765-.812-1.362-1.328-1.791-.516-.431-1.348-.645-2.494-.645-1.06 0-1.917.233-2.568.7-.65.466-.977 1.027-.977 1.681 0 .408.11.758.333 1.053.222.296.527.55.914.762.387.213.78.38 1.177.499.397.12 1.054.295 1.968.526 1.142.269 2.18.563 3.107.886.93.324 1.719.715 2.367 1.177a4.839 4.839 0 0 1 1.525 1.753c.365.706.547 1.57.547 2.596" fill="#aa243f" fill-rule="evenodd" data-name="Path 840"></path><path d="m242.758 131.71-3.283-12.171-3.322 12.172c-.26.923-.465 1.586-.618 1.988-.153.401-.418.762-.796 1.08-.377.319-.882.477-1.51.477-.506 0-.927-.095-1.254-.284a2.177 2.177 0 0 1-.795-.803 5.072 5.072 0 0 1-.5-1.232c-.13-.477-.242-.917-.345-1.323l-3.38-13.668c-.204-.795-.302-1.4-.302-1.814 0-.528.183-.97.553-1.33.367-.36.826-.54 1.37-.54.748 0 1.25.239 1.51.72.259.48.485 1.177.678 2.092l2.66 11.853 2.976-11.093c.224-.849.42-1.494.596-1.937a2.79 2.79 0 0 1 .858-1.15c.397-.323.938-.485 1.621-.485.693 0 1.23.168 1.613.505.383.338.649.705.796 1.1.148.397.347 1.053.598 1.967l3.004 11.093 2.66-11.853c.128-.619.25-1.104.366-1.455.114-.35.313-.665.595-.942.283-.277.691-.415 1.226-.415.534 0 .989.177 1.364.532.373.356.56.802.56 1.338 0 .378-.1.982-.305 1.814l-3.378 13.668c-.23.923-.423 1.6-.575 2.03a2.68 2.68 0 0 1-.776 1.127c-.363.324-.88.485-1.543.485-.629 0-1.132-.157-1.511-.47-.378-.314-.642-.667-.79-1.06-.147-.394-.353-1.065-.62-2.015" fill="#aa243f" fill-rule="evenodd" data-name="Path 841"></path><path d="m177.28 163.211-.58-1.53h-4.953l-.581 1.563c-.227.61-.42 1.023-.581 1.235-.161.213-.425.32-.79.32-.31 0-.584-.115-.823-.342-.237-.226-.356-.485-.356-.772 0-.167.027-.338.083-.515.055-.178.145-.423.273-.74l3.116-7.911c.087-.226.195-.498.321-.816.125-.32.257-.585.398-.796.141-.21.328-.38.556-.51.231-.13.515-.196.852-.196.344 0 .63.066.862.197.23.13.413.296.555.5.143.205.261.428.358.663.098.236.219.55.37.942l3.181 7.86c.25.599.374 1.033.374 1.304 0 .284-.115.544-.352.779-.234.235-.52.353-.852.353-.193 0-.36-.034-.498-.104a1 1 0 0 1-.35-.282 2.582 2.582 0 0 1-.303-.549c-.107-.245-.2-.465-.28-.653m-4.884-3.382h3.638l-1.835-5.027-1.803 5.027Z" fill="#aa243f" fill-rule="evenodd" data-name="Path 842"></path><path d="M187.376 163.519v-.29c-.27.341-.558.63-.857.863a3.162 3.162 0 0 1-.98.521 4.01 4.01 0 0 1-1.214.17c-.547 0-1.039-.115-1.473-.342a2.498 2.498 0 0 1-1.01-.938c-.284-.483-.423-1.176-.423-2.078v-4.496c0-.453.101-.792.306-1.016.205-.225.477-.338.813-.338.345 0 .622.113.833.34.21.229.316.567.316 1.014v3.632c0 .526.045.97.132 1.325.09.359.248.638.477.84.231.202.541.303.936.303.381 0 .742-.114 1.08-.34.339-.229.584-.525.74-.89.127-.322.191-1.026.191-2.112v-2.758c0-.447.105-.785.316-1.014.21-.227.484-.34.82-.34.34 0 .61.113.816.338.206.224.308.563.308 1.016v6.574c0 .431-.1.755-.294.971a.984.984 0 0 1-.761.324.989.989 0 0 1-.769-.335c-.201-.223-.303-.54-.303-.944" fill="#aa243f" fill-rule="evenodd" data-name="Path 843"></path><path d="M198.981 161.832c0 .626-.15 1.163-.455 1.609-.305.446-.756.783-1.351 1.014-.595.23-1.32.343-2.172.343-.815 0-1.513-.124-2.096-.374-.581-.249-1.01-.56-1.289-.933-.275-.374-.413-.75-.413-1.128 0-.248.089-.462.265-.64a.918.918 0 0 1 .673-.266c.24 0 .42.058.55.175.127.117.248.28.364.49.234.404.512.708.835.906.325.2.765.3 1.325.3.454 0 .827-.1 1.119-.302.29-.202.435-.435.435-.696 0-.399-.15-.69-.452-.873-.302-.182-.8-.356-1.49-.522-.782-.195-1.42-.397-1.908-.61-.492-.213-.882-.496-1.176-.845-.294-.349-.44-.777-.44-1.287 0-.456.136-.885.406-1.289.271-.404.671-.725 1.2-.966.53-.24 1.166-.363 1.917-.363.587 0 1.114.062 1.582.183.469.121.858.286 1.172.489.314.205.551.433.715.682.164.25.246.493.246.732 0 .26-.088.474-.262.64-.175.166-.424.248-.745.248a.914.914 0 0 1-.594-.199 4.004 4.004 0 0 1-.561-.598 2.06 2.06 0 0 0-.605-.532c-.233-.132-.55-.199-.948-.199-.41 0-.753.089-1.022.263-.273.175-.408.39-.408.651 0 .239.1.436.299.587.2.153.468.277.807.376.337.1.803.221 1.395.366.703.172 1.279.377 1.724.615.447.239.784.52 1.013.845.23.323.345.692.345 1.108" fill="#aa243f" fill-rule="evenodd" data-name="Path 844"></path><path d="M200.94 155.774h.25v-1.363c0-.365.01-.65.03-.858a1.29 1.29 0 0 1 .16-.537 1.087 1.087 0 0 1 .94-.525c.287 0 .55.11.78.326a.97.97 0 0 1 .297.529c.04.207.062.5.062.883v1.545h.83c.32 0 .566.079.735.23a.752.752 0 0 1 .254.585c0 .305-.121.519-.362.64-.24.121-.586.183-1.034.183h-.423v4.17c0 .355.012.629.036.821.026.19.09.345.201.465.107.118.282.178.526.178.134 0 .314-.024.54-.07.228-.047.405-.072.533-.072a.68.68 0 0 1 .493.221.736.736 0 0 1 .222.543c0 .365-.201.646-.6.84-.397.193-.97.29-1.72.29-.708 0-1.246-.12-1.61-.358a1.65 1.65 0 0 1-.72-.989c-.114-.42-.17-.981-.17-1.686v-4.353h-.298c-.327 0-.578-.078-.75-.234a.755.755 0 0 1-.257-.59c0-.238.09-.43.27-.584.181-.151.44-.23.785-.23" fill="#aa243f" fill-rule="evenodd" data-name="Path 845"></path><path d="M209.007 161.524v1.895c0 .46-.11.805-.324 1.035-.215.23-.491.344-.822.344-.326 0-.597-.117-.805-.35-.212-.232-.317-.576-.317-1.029v-6.315c0-1.02.367-1.53 1.105-1.53.376 0 .647.12.814.358.166.24.256.59.275 1.055.272-.466.55-.816.835-1.055.286-.238.666-.357 1.142-.357.476 0 .94.119 1.388.357.447.24.673.553.673.947a.9.9 0 0 1-.289.687.882.882 0 0 1-.618.268c-.084 0-.281-.049-.601-.151-.32-.102-.601-.156-.844-.156-.331 0-.604.09-.814.264-.21.175-.375.432-.49.775a5.427 5.427 0 0 0-.24 1.226c-.045.474-.068 1.05-.068 1.732" fill="#aa243f" fill-rule="evenodd" data-name="Path 846"></path><path d="M219.433 163.519c-.548.426-1.079.748-1.592.96-.51.213-1.086.32-1.723.32-.581 0-1.092-.115-1.532-.344a2.51 2.51 0 0 1-1.018-.936 2.412 2.412 0 0 1-.358-1.28c0-.62.197-1.15.592-1.587.392-.438.932-.732 1.618-.881a70.69 70.69 0 0 1 1.072-.225c.57-.116 1.059-.22 1.468-.318.406-.097.849-.216 1.325-.355-.03-.598-.15-1.035-.36-1.316-.217-.278-.658-.42-1.33-.42-.573 0-1.009.08-1.298.241-.29.16-.54.401-.75.722a7.079 7.079 0 0 1-.44.637c-.084.103-.27.153-.55.153a.968.968 0 0 1-.662-.244.801.801 0 0 1-.276-.628c0-.399.138-.787.423-1.164.282-.377.722-.686 1.32-.93.598-.244 1.343-.366 2.234-.366.998 0 1.782.119 2.352.354.571.236.973.607 1.21 1.116.234.51.352 1.186.352 2.028 0 .532 0 .983-.002 1.355-.003.371-.008.784-.014 1.238 0 .427.07.872.211 1.335.141.463.213.758.213.891 0 .233-.108.447-.327.637a1.104 1.104 0 0 1-.746.287c-.231 0-.463-.109-.688-.327-.227-.22-.469-.538-.724-.953m-.148-3.283c-.334.122-.817.253-1.452.389a34.25 34.25 0 0 0-1.315.299 1.778 1.778 0 0 0-.7.373c-.22.185-.332.444-.332.776 0 .344.132.637.39.878.262.24.603.36 1.023.36.448 0 .862-.097 1.244-.294.38-.197.657-.452.835-.762.203-.343.307-.908.307-1.695v-.324Z" fill="#aa243f" fill-rule="evenodd" data-name="Path 847"></path><path d="M223.728 163.419v-9.838c0-.455.101-.798.303-1.03.201-.233.475-.35.82-.35.34 0 .62.117.829.346.21.23.315.574.315 1.034v9.838c0 .46-.107.805-.32 1.036-.213.23-.49.343-.825.343-.332 0-.603-.118-.811-.357-.207-.238-.311-.579-.311-1.022" fill="#aa243f" fill-rule="evenodd" data-name="Path 848"></path><path d="M229.4 154.52c-.316 0-.586-.098-.81-.292-.226-.193-.335-.467-.335-.823 0-.32.112-.583.343-.79.232-.209.497-.315.803-.315.295 0 .553.094.78.284.226.187.341.462.341.821 0 .35-.112.624-.333.82a1.148 1.148 0 0 1-.788.295m1.121 2.343v6.556c0 .453-.11.797-.324 1.03-.214.232-.491.35-.821.35-.333 0-.604-.119-.81-.357-.208-.239-.312-.58-.312-1.023v-6.49c0-.45.104-.787.311-1.014.207-.226.478-.34.811-.34.33 0 .607.114.821.34.215.227.324.543.324.948" fill="#aa243f" fill-rule="evenodd" data-name="Path 849"></path><path d="M238.513 163.519c-.547.426-1.077.748-1.59.96-.514.213-1.088.32-1.724.32-.581 0-1.094-.115-1.533-.344a2.525 2.525 0 0 1-1.019-.936 2.424 2.424 0 0 1-.357-1.28c0-.62.198-1.15.59-1.587.393-.438.934-.732 1.621-.881.142-.033.5-.108 1.07-.225.571-.116 1.06-.22 1.468-.318.408-.097.848-.216 1.325-.355-.029-.598-.147-1.035-.362-1.316-.214-.278-.654-.42-1.325-.42-.576 0-1.01.08-1.3.241-.29.16-.54.401-.748.722a7.74 7.74 0 0 1-.44.637c-.087.103-.27.153-.553.153a.961.961 0 0 1-.66-.244.8.8 0 0 1-.279-.628c0-.399.14-.787.425-1.164.28-.377.721-.686 1.32-.93.599-.244 1.343-.366 2.235-.366.998 0 1.783.119 2.352.354.57.236.973.607 1.21 1.116.234.51.353 1.186.353 2.028a179.78 179.78 0 0 1-.017 2.593c0 .427.07.872.212 1.335.14.463.213.758.213.891 0 .233-.11.447-.33.637-.22.192-.468.287-.744.287-.233 0-.462-.109-.688-.327-.229-.22-.47-.538-.725-.953m-.15-3.283c-.332.122-.815.253-1.449.389-.635.135-1.074.235-1.317.299a1.759 1.759 0 0 0-.697.373c-.222.185-.333.444-.333.776 0 .344.13.637.39.878.261.24.603.36 1.023.36.449 0 .862-.097 1.243-.294.379-.197.657-.452.834-.762.205-.343.307-.908.307-1.695v-.324Z" fill="#aa243f" fill-rule="evenodd" data-name="Path 850"></path><path d="M244.868 156.83v.274c.399-.526.835-.91 1.309-1.158.473-.247 1.016-.371 1.633-.371.598 0 1.133.13 1.603.391.471.26.822.628 1.056 1.105.149.277.246.576.29.897.045.321.066.732.066 1.23v4.222c0 .453-.101.796-.31 1.029-.207.232-.48.35-.81.35-.338 0-.615-.12-.824-.357-.211-.239-.315-.58-.315-1.022v-3.782c0-.748-.105-1.318-.312-1.714-.208-.397-.622-.596-1.243-.596-.403 0-.77.122-1.104.362a2.083 2.083 0 0 0-.731.992c-.11.339-.167.97-.167 1.895v2.843c0 .459-.106.805-.319 1.035-.214.23-.49.343-.826.343-.327 0-.597-.12-.807-.356-.21-.239-.316-.58-.316-1.022v-6.557c0-.432.093-.754.282-.966.189-.214.446-.322.773-.322.199 0 .38.048.542.141.16.094.287.236.385.424.097.189.145.418.145.69" fill="#aa243f" fill-rule="evenodd" data-name="Path 851"></path><path d="m265.123 163.211-.583-1.53h-4.951l-.583 1.563c-.227.61-.42 1.023-.582 1.235-.16.213-.423.32-.787.32-.31 0-.587-.115-.822-.342-.239-.226-.358-.485-.358-.772 0-.167.026-.338.081-.515.055-.178.148-.423.277-.74l3.115-7.911.319-.816c.124-.32.258-.585.4-.796.14-.21.326-.38.556-.51.228-.13.513-.196.852-.196.344 0 .629.066.858.197.23.13.417.296.558.5.14.205.26.428.358.663.096.236.22.55.37.942l3.181 7.86c.248.599.372 1.033.372 1.304 0 .284-.115.544-.352.779a1.153 1.153 0 0 1-.85.353c-.194 0-.36-.034-.499-.104a1.018 1.018 0 0 1-.35-.282 2.712 2.712 0 0 1-.304-.549 41.394 41.394 0 0 1-.276-.653m-4.886-3.382h3.64l-1.837-5.027-1.803 5.027Z" fill="#aa243f" fill-rule="evenodd" data-name="Path 852"></path><path d="M276.63 161.832c0 .626-.153 1.163-.458 1.609-.304.446-.757.783-1.352 1.014-.594.23-1.317.343-2.17.343-.816 0-1.514-.124-2.095-.374-.581-.249-1.011-.56-1.289-.933-.276-.374-.415-.75-.415-1.128 0-.248.09-.462.266-.64a.92.92 0 0 1 .673-.266c.239 0 .422.058.55.175.128.117.25.28.365.49.232.404.51.708.833.906.326.2.767.3 1.327.3.454 0 .825-.1 1.117-.302.29-.202.437-.435.437-.696 0-.399-.152-.69-.454-.873-.302-.182-.798-.356-1.489-.522-.782-.195-1.419-.397-1.91-.61-.49-.213-.88-.496-1.173-.845-.296-.349-.442-.777-.442-1.287 0-.456.135-.885.407-1.289.272-.404.67-.725 1.2-.966.527-.24 1.167-.363 1.918-.363.587 0 1.113.062 1.58.183.47.121.86.286 1.173.489.313.205.55.433.713.682.164.25.249.493.249.732 0 .26-.09.474-.265.64-.176.166-.422.248-.742.248a.918.918 0 0 1-.596-.199 4.005 4.005 0 0 1-.561-.598 2.03 2.03 0 0 0-.606-.532c-.232-.132-.547-.199-.945-.199-.412 0-.753.089-1.024.263-.272.175-.406.39-.406.651 0 .239.098.436.299.587.2.153.468.277.806.376.338.1.801.221 1.394.366.704.172 1.28.377 1.723.615.449.239.784.52 1.014.845.23.323.347.692.347 1.108" fill="#aa243f" fill-rule="evenodd" data-name="Path 853"></path><path d="M285.767 161.832c0 .626-.153 1.163-.457 1.609-.305.446-.753.783-1.348 1.014-.595.23-1.323.343-2.175.343-.814 0-1.512-.124-2.096-.374-.58-.249-1.01-.56-1.286-.933-.277-.374-.415-.75-.415-1.128 0-.248.088-.462.265-.64a.914.914 0 0 1 .673-.266c.238 0 .422.058.549.175.127.117.25.28.365.49.233.404.512.708.837.906.324.2.764.3 1.323.3.456 0 .828-.1 1.119-.302.29-.202.436-.435.436-.696 0-.399-.148-.69-.45-.873-.302-.182-.803-.356-1.495-.522-.782-.195-1.414-.397-1.906-.61-.492-.213-.884-.496-1.177-.845-.294-.349-.439-.777-.439-1.287 0-.456.134-.885.405-1.289.272-.404.674-.725 1.202-.966.53-.24 1.167-.363 1.915-.363.587 0 1.117.062 1.585.183.468.121.859.286 1.17.489.313.205.553.433.716.682.163.25.244.493.244.732a.84.84 0 0 1-.262.64c-.174.166-.422.248-.746.248a.913.913 0 0 1-.592-.199 4.008 4.008 0 0 1-.561-.598 2.048 2.048 0 0 0-.606-.532c-.232-.132-.549-.199-.948-.199-.41 0-.75.089-1.021.263-.272.175-.41.39-.41.651 0 .239.102.436.3.587.202.153.468.277.806.376.339.1.804.221 1.397.366.704.172 1.28.377 1.726.615.445.239.783.52 1.012.845.229.323.345.692.345 1.108" fill="#aa243f" fill-rule="evenodd" data-name="Path 854"></path><path d="M296.094 160.187c0 .675-.106 1.3-.314 1.87a4.173 4.173 0 0 1-.914 1.47c-.4.41-.878.727-1.43.944-.556.22-1.178.327-1.87.327-.689 0-1.305-.11-1.853-.332a4.094 4.094 0 0 1-2.34-2.411 5.376 5.376 0 0 1-.312-1.868c0-.687.107-1.316.316-1.886.212-.57.514-1.059.906-1.464a3.95 3.95 0 0 1 1.43-.932 5.029 5.029 0 0 1 1.852-.33c.687 0 1.31.11 1.87.332a4.09 4.09 0 0 1 1.439.948c.398.41.7.897.908 1.461.206.567.312 1.19.312 1.871m-2.278 0c0-.926-.203-1.645-.609-2.16-.407-.516-.955-.773-1.642-.773a2.02 2.02 0 0 0-1.171.347c-.337.229-.6.567-.783 1.016-.18.448-.274.972-.274 1.57 0 .592.092 1.11.271 1.553.18.444.437.785.773 1.02.336.236.73.351 1.184.351.687 0 1.235-.257 1.642-.776.406-.516.61-1.234.61-2.148" fill="#aa243f" fill-rule="evenodd" data-name="Path 855"></path><path d="M305.931 161.99c0 .283-.087.584-.257.905-.169.322-.426.628-.773.92-.346.29-.78.522-1.306.7-.527.177-1.12.266-1.78.266-1.4 0-2.492-.407-3.28-1.223-.787-.818-1.18-1.915-1.18-3.289 0-.931.18-1.753.54-2.468a3.884 3.884 0 0 1 1.561-1.656c.683-.39 1.497-.586 2.444-.586.587 0 1.124.085 1.617.256.488.173.902.393 1.245.665.34.271.6.563.78.87.18.307.27.593.27.859 0 .271-.1.5-.304.69a1.034 1.034 0 0 1-.733.282.736.736 0 0 1-.472-.145 2.298 2.298 0 0 1-.417-.47c-.276-.42-.568-.738-.87-.948-.302-.21-.684-.315-1.148-.315-.673 0-1.211.263-1.622.787-.41.523-.616 1.238-.616 2.146 0 .426.053.82.16 1.177.105.358.257.662.456.915.202.252.442.443.723.573.283.13.593.193.931.193.453 0 .844-.105 1.165-.314.325-.212.614-.533.862-.965.14-.255.289-.454.45-.598a.848.848 0 0 1 .59-.217c.276 0 .507.105.687.317.184.21.277.434.277.672" fill="#aa243f" fill-rule="evenodd" data-name="Path 856"></path><path d="M308.967 154.52c-.314 0-.582-.098-.808-.292-.224-.193-.337-.467-.337-.823 0-.32.116-.583.345-.79.23-.209.497-.315.8-.315.295 0 .554.094.781.284.228.187.34.462.34.821 0 .35-.11.624-.331.82a1.15 1.15 0 0 1-.79.295m1.121 2.343v6.556c0 .453-.107.797-.321 1.03a1.08 1.08 0 0 1-.824.35c-.333 0-.6-.119-.808-.357-.21-.239-.313-.58-.313-1.023v-6.49c0-.45.103-.787.313-1.014.207-.226.475-.34.808-.34.331 0 .607.114.824.34.214.227.321.543.321.948" fill="#aa243f" fill-rule="evenodd" data-name="Path 857"></path><path d="M318.08 163.519c-.548.426-1.077.748-1.59.96-.51.213-1.088.32-1.725.32-.581 0-1.092-.115-1.532-.344a2.519 2.519 0 0 1-1.018-.936 2.438 2.438 0 0 1-.358-1.28c0-.62.197-1.15.59-1.587.394-.438.933-.732 1.62-.881.145-.033.503-.108 1.073-.225.57-.116 1.06-.22 1.467-.318.407-.097.849-.216 1.325-.355-.03-.598-.148-1.035-.36-1.316-.215-.278-.658-.42-1.329-.42-.574 0-1.007.08-1.298.241-.29.16-.54.401-.747.722a7.656 7.656 0 0 1-.441.637c-.086.103-.27.153-.553.153a.965.965 0 0 1-.66-.244.804.804 0 0 1-.28-.628c0-.399.14-.787.424-1.164.283-.377.722-.686 1.321-.93.598-.244 1.343-.366 2.234-.366.998 0 1.782.119 2.352.354.572.236.976.607 1.21 1.116.237.51.353 1.186.353 2.028 0 .532 0 .983-.003 1.355-.003.371-.008.784-.014 1.238 0 .427.074.872.214 1.335.14.463.21.758.21.891 0 .233-.108.447-.325.637a1.108 1.108 0 0 1-.748.287c-.231 0-.462-.109-.688-.327-.227-.22-.468-.538-.724-.953m-.148-3.283c-.334.122-.815.253-1.45.389-.634.135-1.074.235-1.317.299a1.779 1.779 0 0 0-.7.373c-.22.185-.332.444-.332.776 0 .344.133.637.39.878.261.24.603.36 1.023.36.449 0 .863-.097 1.244-.294.381-.197.657-.452.835-.762.203-.343.307-.908.307-1.695v-.324Z" fill="#aa243f" fill-rule="evenodd" data-name="Path 858"></path><path d="M322.079 155.774h.248v-1.363c0-.365.008-.65.027-.858.02-.207.077-.388.163-.537a.995.995 0 0 1 .385-.377c.164-.096.35-.147.553-.147.29 0 .55.108.784.325.154.143.251.32.294.529.04.207.062.5.062.883v1.545h.83c.32 0 .566.079.735.23a.75.75 0 0 1 .254.585c0 .305-.121.519-.361.64-.243.121-.586.183-1.033.183h-.425v4.17c0 .355.01.629.036.821a.83.83 0 0 0 .2.465c.108.118.284.178.528.178.135 0 .313-.024.54-.07.228-.047.405-.072.533-.072a.68.68 0 0 1 .493.221.738.738 0 0 1 .222.543c0 .365-.2.646-.6.84-.398.193-.97.29-1.718.29-.71 0-1.247-.12-1.614-.358a1.65 1.65 0 0 1-.719-.989c-.115-.42-.169-.981-.169-1.686v-4.353h-.299c-.327 0-.577-.078-.747-.234a.759.759 0 0 1-.26-.59c0-.238.09-.43.27-.584.181-.151.442-.23.788-.23" fill="#aa243f" fill-rule="evenodd" data-name="Path 859"></path><path d="M329.037 154.52a1.2 1.2 0 0 1-.81-.292c-.225-.193-.335-.467-.335-.823 0-.32.113-.583.34-.79.233-.209.5-.315.805-.315.296 0 .553.094.782.284.228.187.34.462.34.821 0 .35-.11.624-.332.82a1.15 1.15 0 0 1-.79.295m1.123 2.343v6.556c0 .453-.107.797-.325 1.03-.216.232-.49.35-.822.35-.331 0-.605-.119-.811-.357-.208-.239-.31-.58-.31-1.023v-6.49c0-.45.102-.787.31-1.014.206-.226.48-.34.811-.34.331 0 .606.114.822.34.218.227.325.543.325.948" fill="#aa243f" fill-rule="evenodd" data-name="Path 860"></path><path d="M340.909 160.187c0 .675-.105 1.3-.316 1.87a4.084 4.084 0 0 1-.914 1.47c-.4.41-.876.727-1.428.944-.555.22-1.178.327-1.87.327-.688 0-1.305-.11-1.854-.332a4.083 4.083 0 0 1-1.423-.95 4.082 4.082 0 0 1-.915-1.461 5.376 5.376 0 0 1-.311-1.868c0-.687.104-1.316.315-1.886.21-.57.512-1.059.906-1.464a3.959 3.959 0 0 1 1.428-.932 5.04 5.04 0 0 1 1.853-.33c.687 0 1.31.11 1.87.332a4.09 4.09 0 0 1 1.439.948c.399.41.704.897.91 1.461.208.567.31 1.19.31 1.871m-2.276 0c0-.926-.202-1.645-.61-2.16-.406-.516-.956-.773-1.643-.773-.444 0-.833.115-1.171.347-.338.229-.598.567-.782 1.016-.18.448-.274.972-.274 1.57 0 .592.094 1.11.271 1.553.18.444.437.785.775 1.02.334.236.726.351 1.181.351.687 0 1.237-.257 1.643-.776.408-.516.61-1.234.61-2.148" fill="#aa243f" fill-rule="evenodd" data-name="Path 861"></path><path d="M344.673 156.83v.274c.4-.526.834-.91 1.308-1.158.473-.247 1.018-.371 1.634-.371.598 0 1.132.13 1.604.391.47.26.822.628 1.054 1.105.15.277.247.576.29.897.046.321.067.732.067 1.23v4.222c0 .453-.104.796-.311 1.029-.209.232-.477.35-.81.35-.338 0-.612-.12-.824-.357-.208-.239-.313-.58-.313-1.022v-3.782c0-.748-.106-1.318-.314-1.714-.208-.397-.62-.596-1.24-.596a1.85 1.85 0 0 0-1.105.362 2.068 2.068 0 0 0-.732.992c-.109.339-.165.97-.165 1.895v2.843c0 .459-.107.805-.323 1.035-.213.23-.488.343-.825.343-.326 0-.595-.12-.805-.356-.21-.239-.318-.58-.318-1.022v-6.557c0-.432.096-.754.282-.966.19-.214.449-.322.775-.322.198 0 .379.048.54.141.16.094.287.236.386.424.096.189.145.418.145.69" fill="#aa243f" fill-rule="evenodd" data-name="Path 862"></path><path d="M177.823 177.203c0 .677-.105 1.3-.316 1.871a4.16 4.16 0 0 1-.914 1.47c-.4.41-.876.727-1.43.944-.553.22-1.176.327-1.869.327-.686 0-1.306-.11-1.853-.333a4.092 4.092 0 0 1-1.426-.95c-.4-.41-.705-.9-.914-1.46a5.34 5.34 0 0 1-.311-1.869c0-.686.106-1.314.316-1.885.21-.57.513-1.059.907-1.463a3.96 3.96 0 0 1 1.428-.933 5.03 5.03 0 0 1 1.853-.33c.685 0 1.31.11 1.869.332a4.07 4.07 0 0 1 1.439.948c.397.41.702.897.909 1.462.207.566.312 1.188.312 1.87m-2.276 0c0-.926-.205-1.645-.612-2.16-.407-.516-.956-.773-1.64-.773-.445 0-.834.115-1.173.347-.338.229-.598.567-.781 1.016-.183.447-.274.972-.274 1.57 0 .592.09 1.11.271 1.554.178.443.438.784.772 1.02.334.235.729.35 1.184.35.685 0 1.234-.257 1.64-.775.408-.517.613-1.235.613-2.15" fill="#aa243f" fill-rule="evenodd" data-name="Path 863"></path><path d="M179.34 172.792h.541v-.681c0-.71.09-1.271.27-1.69.18-.418.485-.723.914-.915.428-.19 1.018-.287 1.767-.287 1.322 0 1.985.324 1.985.972 0 .21-.07.39-.208.54a.644.644 0 0 1-.49.224c-.088 0-.24-.016-.458-.05a3.717 3.717 0 0 0-.549-.05c-.41 0-.672.123-.788.364-.117.24-.175.584-.175 1.033v.54h.556c.866 0 1.297.26 1.297.781 0 .372-.116.607-.345.706-.23.1-.547.149-.952.149h-.556v6.008c0 .448-.107.792-.32 1.028-.213.235-.49.353-.827.353-.322 0-.587-.118-.801-.353-.214-.236-.32-.58-.32-1.028v-6.008h-.624c-.337 0-.598-.074-.78-.227a.734.734 0 0 1-.273-.595c0-.543.378-.814 1.136-.814" fill="#aa243f" fill-rule="evenodd" data-name="Path 864"></path><path d="M200.593 177.952c0 .737-.192 1.4-.571 1.985-.38.589-.935 1.048-1.667 1.38-.73.333-1.598.5-2.6.5-1.2 0-2.193-.228-2.975-.682a3.98 3.98 0 0 1-1.35-1.309c-.345-.544-.52-1.076-.52-1.591 0-.3.104-.554.313-.768.207-.212.471-.32.794-.32.26 0 .48.081.66.25.18.165.334.41.461.738.156.387.323.712.502.972.181.26.435.476.762.646.327.169.756.25 1.287.25.731 0 1.325-.168 1.782-.509.458-.34.686-.766.686-1.276 0-.405-.122-.73-.37-.984a2.378 2.378 0 0 0-.955-.579c-.39-.132-.912-.273-1.565-.423-.876-.205-1.61-.443-2.2-.718-.589-.274-1.057-.647-1.404-1.12-.347-.474-.519-1.065-.519-1.768 0-.67.183-1.266.547-1.786.367-.522.897-.92 1.588-1.2.694-.279 1.508-.42 2.443-.42.747 0 1.394.093 1.94.28.545.184 1 .43 1.359.74.36.306.625.627.79.965.166.338.25.667.25.99 0 .292-.105.558-.311.793a1 1 0 0 1-.779.353c-.282 0-.497-.07-.643-.21-.148-.143-.307-.375-.48-.695-.22-.462-.487-.818-.797-1.076-.308-.258-.808-.388-1.495-.388-.636 0-1.151.142-1.54.42-.392.28-.587.615-.587 1.01 0 .243.068.454.2.631.133.177.315.329.547.457.234.128.468.228.708.299.237.072.63.178 1.18.316.688.16 1.308.337 1.865.531.557.195 1.03.43 1.42.706.39.278.695.63.914 1.053.218.424.33.942.33 1.557" fill="#aa243f" fill-rule="evenodd" data-name="Path 865"></path><path d="M210.933 177.203c0 .677-.104 1.3-.316 1.871a4.114 4.114 0 0 1-.91 1.47c-.401.41-.878.727-1.43.944-.557.22-1.178.327-1.87.327-.689 0-1.306-.11-1.854-.333a4.079 4.079 0 0 1-2.338-2.41 5.34 5.34 0 0 1-.313-1.869c0-.686.107-1.314.317-1.885a4.12 4.12 0 0 1 .904-1.463 3.982 3.982 0 0 1 1.43-.933c.56-.22 1.176-.33 1.853-.33.687 0 1.31.11 1.87.332.56.222 1.038.538 1.439.948.397.41.7.897.908 1.462.207.566.31 1.188.31 1.87m-2.275 0c0-.926-.204-1.645-.61-2.16-.408-.516-.955-.773-1.642-.773a2.02 2.02 0 0 0-1.172.347c-.337.229-.598.567-.781 1.016-.182.447-.275.972-.275 1.57 0 .592.092 1.11.27 1.554.181.443.438.784.775 1.02.334.235.728.35 1.183.35.687 0 1.234-.257 1.642-.775.406-.517.61-1.235.61-2.15" fill="#aa243f" fill-rule="evenodd" data-name="Path 866"></path><path d="M220.772 179.007c0 .283-.085.585-.255.906-.169.321-.425.63-.772.92-.347.29-.783.522-1.309.7-.527.178-1.118.265-1.778.265-1.4 0-2.495-.407-3.282-1.223-.787-.817-1.179-1.915-1.179-3.288 0-.93.18-1.753.539-2.468a3.898 3.898 0 0 1 1.562-1.657c.683-.39 1.495-.586 2.443-.586.588 0 1.127.086 1.616.257.491.172.906.394 1.247.665.341.271.6.563.781.869.18.308.271.594.271.86a.908.908 0 0 1-.305.69 1.04 1.04 0 0 1-.734.281.734.734 0 0 1-.47-.144 2.342 2.342 0 0 1-.42-.47c-.277-.421-.566-.738-.868-.949-.301-.209-.686-.314-1.152-.314-.668 0-1.21.263-1.619.787-.41.523-.615 1.238-.615 2.146 0 .426.05.82.157 1.176.107.359.258.662.458.915.199.252.44.444.722.573.282.13.592.194.93.194.455 0 .844-.105 1.169-.315.324-.21.612-.533.858-.964.14-.255.291-.454.45-.598a.85.85 0 0 1 .59-.217c.278 0 .508.105.69.316.181.21.275.435.275.673" fill="#aa243f" fill-rule="evenodd" data-name="Path 867"></path><path d="M223.811 171.537c-.317 0-.585-.098-.81-.292-.227-.192-.337-.467-.337-.822 0-.32.113-.584.344-.791.232-.209.498-.314.803-.314.295 0 .553.093.78.283.228.188.341.462.341.822 0 .35-.11.624-.333.82-.22.196-.485.294-.788.294m1.121 2.343v6.556c0 .454-.11.798-.324 1.03-.215.232-.491.349-.821.349-.333 0-.604-.119-.81-.357-.208-.238-.313-.578-.313-1.022v-6.49c0-.449.105-.787.312-1.013.207-.227.478-.341.81-.341.33 0 .607.114.822.34.214.227.324.543.324.948" fill="#aa243f" fill-rule="evenodd" data-name="Path 868"></path><path d="M232.923 180.536c-.547.426-1.078.749-1.591.96-.513.215-1.087.32-1.723.32-.582 0-1.095-.114-1.533-.344a2.524 2.524 0 0 1-1.018-.936 2.428 2.428 0 0 1-.357-1.28c0-.62.197-1.148.59-1.586.394-.438.933-.732 1.62-.881.142-.033.5-.109 1.071-.226.571-.115 1.06-.22 1.467-.317a27.99 27.99 0 0 0 1.324-.356c-.026-.598-.146-1.035-.358-1.315-.217-.279-.657-.42-1.329-.42-.575 0-1.01.079-1.3.24-.289.161-.538.403-.747.723a7.407 7.407 0 0 1-.44.636c-.085.103-.27.154-.553.154a.961.961 0 0 1-.66-.244.799.799 0 0 1-.28-.628c0-.4.142-.788.425-1.164.282-.377.722-.686 1.322-.93.598-.245 1.342-.366 2.233-.366 1 0 1.783.119 2.353.355.571.234.973.606 1.21 1.116.234.51.353 1.185.353 2.027a179.512 179.512 0 0 1-.017 2.592c0 .427.07.872.211 1.336.141.462.213.758.213.89 0 .234-.11.446-.329.638-.22.192-.466.285-.744.285-.231 0-.463-.107-.689-.326-.228-.22-.468-.538-.724-.953m-.15-3.282c-.332.12-.815.253-1.45.388-.634.136-1.071.235-1.316.3a1.758 1.758 0 0 0-.697.373c-.222.185-.333.442-.333.776 0 .342.13.636.39.877.261.24.603.36 1.023.36.449 0 .862-.096 1.244-.293.378-.198.656-.452.833-.762.205-.344.306-.909.306-1.696v-.323Z" fill="#aa243f" fill-rule="evenodd" data-name="Path 869"></path><path d="M237.219 180.436v-9.838c0-.454.101-.798.302-1.03.203-.233.476-.35.82-.35.342 0 .618.117.83.347.21.23.315.573.315 1.033v9.838c0 .46-.107.807-.32 1.035-.213.232-.49.344-.826.344-.334 0-.604-.118-.81-.356-.207-.239-.311-.58-.311-1.023" fill="#aa243f" fill-rule="evenodd" data-name="Path 870"></path><path d="m254.697 179.689-1.97-7.304-1.995 7.304a15.41 15.41 0 0 1-.37 1.194c-.09.241-.25.456-.478.649-.227.19-.528.283-.903.283-.305 0-.556-.054-.754-.17a1.324 1.324 0 0 1-.479-.48 3.089 3.089 0 0 1-.296-.74c-.079-.285-.148-.55-.209-.794l-2.028-8.202c-.121-.476-.183-.838-.183-1.089 0-.315.111-.581.334-.796.221-.217.493-.326.822-.326.447 0 .75.145.906.432.155.29.29.708.406 1.255l1.596 7.114 1.786-6.656c.134-.51.25-.898.358-1.164a1.69 1.69 0 0 1 .515-.689c.238-.195.562-.292.971-.292.416 0 .74.103.97.305.23.203.389.422.477.66.088.239.206.631.357 1.18l1.802 6.656 1.596-7.114c.078-.37.152-.661.22-.872.07-.21.188-.399.358-.565.17-.165.413-.25.736-.25.321 0 .595.109.818.323.224.212.335.48.335.8 0 .226-.062.59-.18 1.088l-2.028 8.202c-.14.552-.254.96-.345 1.218a1.634 1.634 0 0 1-.465.676c-.22.194-.53.29-.928.29-.375 0-.678-.093-.905-.282a1.506 1.506 0 0 1-.474-.635c-.09-.235-.214-.639-.373-1.21" fill="#aa243f" fill-rule="evenodd" data-name="Path 871"></path><path d="M269.859 177.203c0 .677-.105 1.3-.316 1.871a4.104 4.104 0 0 1-.913 1.47c-.4.41-.876.727-1.43.944-.554.22-1.178.327-1.87.327-.687 0-1.304-.11-1.853-.333a4.092 4.092 0 0 1-1.426-.95c-.4-.41-.705-.9-.914-1.46a5.406 5.406 0 0 1-.31-1.869c0-.686.106-1.314.316-1.885.21-.57.512-1.059.905-1.463a3.962 3.962 0 0 1 1.43-.933 5.03 5.03 0 0 1 1.852-.33c.687 0 1.31.11 1.87.332.56.222 1.04.538 1.437.948.4.41.703.897.91 1.462a5.4 5.4 0 0 1 .312 1.87m-2.277 0c0-.926-.203-1.645-.61-2.16-.408-.516-.955-.773-1.642-.773-.444 0-.833.115-1.172.347-.337.229-.598.567-.781 1.016-.18.447-.274.972-.274 1.57 0 .592.09 1.11.271 1.554.18.443.438.784.773 1.02.334.235.728.35 1.183.35.687 0 1.234-.257 1.643-.775.406-.517.61-1.235.61-2.15" fill="#aa243f" fill-rule="evenodd" data-name="Path 872"></path><path d="M273.813 178.542v1.894c0 .46-.108.806-.324 1.035-.216.23-.491.344-.824.344-.324 0-.595-.117-.804-.35-.213-.23-.317-.575-.317-1.029v-6.315c0-1.02.368-1.53 1.107-1.53.375 0 .647.12.812.359.167.239.257.589.274 1.054.272-.465.55-.815.835-1.054.285-.238.668-.358 1.145-.358s.938.12 1.385.358c.45.239.674.553.674.947a.906.906 0 0 1-.288.686c-.192.18-.397.269-.618.269-.083 0-.284-.05-.603-.152-.319-.103-.6-.156-.84-.156-.335 0-.607.09-.817.265-.21.174-.372.431-.49.775a5.402 5.402 0 0 0-.24 1.226c-.045.474-.067 1.05-.067 1.732" fill="#aa243f" fill-rule="evenodd" data-name="Path 873"></path><path d="m284.155 180.777-2.003-3.292-1.229 1.165v1.803c0 .438-.115.775-.345 1.01-.23.236-.495.352-.794.352-.348 0-.625-.116-.822-.348-.199-.234-.3-.576-.3-1.031v-9.671c0-.504.098-.887.291-1.15.195-.263.47-.398.83-.398.35 0 .627.12.833.359.203.238.307.59.307 1.055v5.501l2.55-2.676c.316-.332.557-.558.723-.681.166-.121.369-.184.607-.184.281 0 .518.093.707.272a.9.9 0 0 1 .282.676c0 .333-.308.777-.922 1.33l-1.206 1.105 2.328 3.656c.17.272.296.48.37.621.074.14.112.273.112.401 0 .36-.098.646-.294.853-.196.207-.459.31-.779.31-.277 0-.49-.075-.638-.224-.151-.15-.353-.421-.608-.814" fill="#aa243f" fill-rule="evenodd" data-name="Path 874"></path><path d="M293.859 177.76h-4.437c.006.517.11.97.31 1.363.203.394.471.69.807.89.335.199.705.298 1.11.298.269 0 .517-.03.742-.094.225-.063.444-.163.653-.299.21-.135.406-.282.583-.437.175-.156.407-.365.689-.63.115-.102.281-.151.499-.151.234 0 .42.063.564.19.144.129.217.308.217.54 0 .206-.08.447-.24.721-.16.275-.406.538-.728.79-.325.251-.733.46-1.224.625-.487.166-1.051.25-1.689.25-1.458 0-2.59-.415-3.399-1.246-.81-.832-1.214-1.958-1.214-3.383 0-.67.1-1.29.3-1.864.2-.573.491-1.066.872-1.476.384-.41.855-.723 1.413-.941.561-.22 1.18-.33 1.862-.33.887 0 1.647.188 2.28.562.633.374 1.11.855 1.426 1.449.316.592.474 1.196.474 1.81 0 .571-.164.942-.491 1.111-.327.17-.787.253-1.38.253m-4.436-1.288h4.112c-.056-.776-.265-1.354-.626-1.739-.364-.385-.843-.579-1.434-.579-.566 0-1.031.196-1.392.586-.364.391-.584.968-.66 1.732" fill="#aa243f" fill-rule="evenodd" data-name="Path 875"></path><path d="M299.805 178.542v1.894c0 .46-.107.806-.323 1.035a1.08 1.08 0 0 1-.823.344c-.327 0-.595-.117-.805-.35-.213-.23-.317-.575-.317-1.029v-6.315c0-1.02.37-1.53 1.105-1.53.378 0 .65.12.813.359.169.239.26.589.276 1.054.27-.465.547-.815.833-1.054.287-.238.668-.358 1.144-.358.477 0 .94.12 1.388.358.449.239.674.553.674.947a.903.903 0 0 1-.29.686c-.19.18-.395.269-.615.269-.085 0-.285-.05-.605-.152a2.79 2.79 0 0 0-.842-.156c-.333 0-.605.09-.815.265-.21.174-.372.431-.49.775a5.505 5.505 0 0 0-.24 1.226 19.09 19.09 0 0 0-.068 1.732" fill="#aa243f" fill-rule="evenodd" data-name="Path 876"></path><path d="M311.8 178.85c0 .625-.15 1.163-.455 1.608-.306.446-.754.785-1.35 1.013-.594.231-1.32.344-2.172.344-.814 0-1.514-.124-2.095-.374-.581-.248-1.012-.559-1.288-.932-.278-.375-.416-.751-.416-1.129 0-.248.09-.461.265-.64a.916.916 0 0 1 .674-.265c.237 0 .42.058.55.175.126.117.249.28.365.49.232.404.513.707.837.906.323.2.764.299 1.323.299.454 0 .826-.1 1.12-.302.29-.202.434-.434.434-.696 0-.398-.15-.689-.451-.872-.302-.182-.801-.357-1.492-.523-.782-.195-1.416-.397-1.907-.61-.49-.213-.884-.496-1.177-.844-.293-.35-.44-.778-.44-1.288 0-.455.135-.884.407-1.288.27-.405.671-.725 1.201-.967.528-.24 1.165-.363 1.916-.363.585 0 1.115.062 1.582.183.468.122.859.286 1.172.49.314.205.552.433.715.681.163.25.244.494.244.732a.84.84 0 0 1-.261.64c-.174.166-.426.249-.745.249a.905.905 0 0 1-.592-.2 3.982 3.982 0 0 1-.564-.598 2.042 2.042 0 0 0-.605-.531c-.233-.133-.548-.2-.946-.2-.412 0-.754.089-1.024.263-.27.175-.406.39-.406.651 0 .24.098.435.299.587.2.153.468.277.805.377.34.1.805.221 1.396.365.704.172 1.28.377 1.725.616.449.238.784.52 1.012.845.232.323.345.691.345 1.107" fill="#aa243f" fill-rule="evenodd" data-name="Path 877"></path><path d="M243.494 144.844a1.037 1.037 0 1 1 .004-2.076 1.037 1.037 0 0 1-.004 2.076" fill="#aa243f" fill-rule="evenodd" data-name="Path 878"></path><path d="M239.407 144.844a1.037 1.037 0 1 1 .002-2.074 1.037 1.037 0 0 1-.002 2.074" fill="#aa243f" fill-rule="evenodd" data-name="Path 879"></path><path d="M235.318 144.844a1.038 1.038 0 1 1 .001-2.075 1.038 1.038 0 0 1-.001 2.075" fill="#aa243f" fill-rule="evenodd" data-name="Path 880"></path><path d="M231.23 144.844a1.037 1.037 0 1 1 .002-2.075 1.037 1.037 0 0 1-.001 2.075" fill="#aa243f" fill-rule="evenodd" data-name="Path 881"></path><path d="M227.14 144.844a1.037 1.037 0 1 1 .002-2.074 1.037 1.037 0 0 1-.001 2.074" fill="#aa243f" fill-rule="evenodd" data-name="Path 882"></path><path d="M223.052 144.844a1.037 1.037 0 1 1 .002-2.076 1.037 1.037 0 0 1-.002 2.076" fill="#aa243f" fill-rule="evenodd" data-name="Path 883"></path><path d="M218.964 144.844a1.037 1.037 0 1 1 .001-2.074 1.037 1.037 0 0 1-.001 2.074" fill="#aa243f" fill-rule="evenodd" data-name="Path 884"></path><path d="M214.875 144.844a1.037 1.037 0 1 1 .002-2.076 1.037 1.037 0 0 1-.002 2.076" fill="#aa243f" fill-rule="evenodd" data-name="Path 885"></path><path d="M210.787 144.844a1.037 1.037 0 1 1 .001-2.074 1.037 1.037 0 0 1-.001 2.074" fill="#aa243f" fill-rule="evenodd" data-name="Path 886"></path><path d="M206.698 144.844a1.037 1.037 0 1 1 .002-2.076 1.037 1.037 0 0 1-.002 2.076" fill="#aa243f" fill-rule="evenodd" data-name="Path 887"></path><path d="M202.608 144.844a1.037 1.037 0 1 1 .004-2.074 1.037 1.037 0 0 1-.004 2.074" fill="#aa243f" fill-rule="evenodd" data-name="Path 888"></path><path d="M198.521 144.844a1.037 1.037 0 1 1 .002-2.076 1.037 1.037 0 0 1-.002 2.076" fill="#aa243f" fill-rule="evenodd" data-name="Path 889"></path><path d="M194.433 144.844a1.037 1.037 0 1 1-.003-2.073 1.037 1.037 0 0 1 .003 2.073" fill="#aa243f" fill-rule="evenodd" data-name="Path 890"></path><path d="M190.345 144.844a1.037 1.037 0 1 1 .001-2.076 1.037 1.037 0 0 1-.001 2.076" fill="#aa243f" fill-rule="evenodd" data-name="Path 891"></path><path d="M186.254 144.844a1.038 1.038 0 0 1 0-2.075 1.037 1.037 0 0 1 0 2.075" fill="#aa243f" fill-rule="evenodd" data-name="Path 892"></path><path d="M182.168 144.844a1.037 1.037 0 1 1 .002-2.076 1.037 1.037 0 0 1-.002 2.076" fill="#aa243f" fill-rule="evenodd" data-name="Path 893"></path><path d="M178.078 144.844a1.038 1.038 0 0 1 0-2.075 1.037 1.037 0 0 1 0 2.075" fill="#aa243f" fill-rule="evenodd" data-name="Path 894"></path><path d="M173.99 144.844a1.037 1.037 0 1 1 .002-2.076 1.037 1.037 0 0 1-.001 2.076" fill="#aa243f" fill-rule="evenodd" data-name="Path 895"></path><path d="M169.901 144.844a1.038 1.038 0 0 1 0-2.075 1.037 1.037 0 0 1 0 2.075" fill="#aa243f" fill-rule="evenodd" data-name="Path 896"></path><path d="M321.178 144.844a1.037 1.037 0 0 1 0-2.075c.574 0 1.035.466 1.035 1.04 0 .57-.461 1.035-1.035 1.035" fill="#aa243f" fill-rule="evenodd" data-name="Path 897"></path><path d="M317.09 144.844a1.037 1.037 0 0 1 0-2.075 1.037 1.037 0 0 1 0 2.075" fill="#aa243f" fill-rule="evenodd" data-name="Path 898"></path><path d="M313 144.844a1.035 1.035 0 0 1-1.034-1.036 1.036 1.036 0 1 1 2.071 0c0 .57-.462 1.036-1.036 1.036" fill="#aa243f" fill-rule="evenodd" data-name="Path 899"></path><path d="M308.912 144.844a1.039 1.039 0 1 1 .002-2.077 1.039 1.039 0 0 1-.002 2.077" fill="#aa243f" fill-rule="evenodd" data-name="Path 900"></path><path d="M304.825 144.844a1.038 1.038 0 1 1-.003-2.075 1.038 1.038 0 0 1 .003 2.075" fill="#aa243f" fill-rule="evenodd" data-name="Path 901"></path><path d="M300.734 144.844a1.038 1.038 0 1 1 .003-2.076 1.038 1.038 0 0 1-.003 2.076" fill="#aa243f" fill-rule="evenodd" data-name="Path 902"></path><path d="M296.645 144.844a1.04 1.04 0 0 1-1.036-1.036c0-.573.467-1.04 1.036-1.04a1.038 1.038 0 0 1 0 2.075" fill="#aa243f" fill-rule="evenodd" data-name="Path 903"></path><path d="M292.558 144.844a1.035 1.035 0 0 1-1.036-1.036 1.036 1.036 0 1 1 1.036 1.036" fill="#aa243f" fill-rule="evenodd" data-name="Path 904"></path><path d="M288.47 144.844a1.037 1.037 0 1 1 .002-2.076 1.037 1.037 0 0 1-.002 2.076" fill="#aa243f" fill-rule="evenodd" data-name="Path 905"></path><path d="M284.381 144.844a1.037 1.037 0 0 1 0-2.075 1.037 1.037 0 0 1 0 2.075" fill="#aa243f" fill-rule="evenodd" data-name="Path 906"></path><path d="M280.29 144.844a1.037 1.037 0 1 1 .004-2.074 1.037 1.037 0 0 1-.004 2.074" fill="#aa243f" fill-rule="evenodd" data-name="Path 907"></path><path d="M276.205 144.844a1.039 1.039 0 0 1 0-2.075 1.038 1.038 0 0 1 0 2.075" fill="#aa243f" fill-rule="evenodd" data-name="Path 908"></path><path d="M272.115 144.844a1.037 1.037 0 1 1 .002-2.074 1.037 1.037 0 0 1-.002 2.074" fill="#aa243f" fill-rule="evenodd" data-name="Path 909"></path><path d="M268.028 144.844a1.037 1.037 0 1 1-.003-2.073 1.037 1.037 0 0 1 .003 2.073" fill="#aa243f" fill-rule="evenodd" data-name="Path 910"></path><path d="M263.938 144.844a1.037 1.037 0 1 1 .002-2.074 1.037 1.037 0 0 1-.002 2.074" fill="#aa243f" fill-rule="evenodd" data-name="Path 911"></path><path d="M259.851 144.844a1.037 1.037 0 1 1-.002-2.073 1.037 1.037 0 0 1 .002 2.073" fill="#aa243f" fill-rule="evenodd" data-name="Path 912"></path><path d="M255.76 144.844a1.037 1.037 0 1 1 .004-2.074 1.037 1.037 0 0 1-.004 2.074" fill="#aa243f" fill-rule="evenodd" data-name="Path 913"></path><path d="M251.673 144.844a1.037 1.037 0 1 1 .002-2.076 1.037 1.037 0 0 1-.002 2.076" fill="#aa243f" fill-rule="evenodd" data-name="Path 914"></path><path d="M247.583 144.844a1.037 1.037 0 1 1 .004-2.074 1.037 1.037 0 0 1-.004 2.074" fill="#aa243f" fill-rule="evenodd" data-name="Path 915"></path><path d="M349.797 144.844a1.037 1.037 0 0 1 0-2.075c.575 0 1.036.466 1.036 1.04 0 .57-.46 1.035-1.036 1.035" fill="#aa243f" fill-rule="evenodd" data-name="Path 916"></path><path d="M345.71 144.844a1.037 1.037 0 1 1-.003-2.073 1.037 1.037 0 0 1 .003 2.073" fill="#aa243f" fill-rule="evenodd" data-name="Path 917"></path><path d="M341.621 144.844a1.037 1.037 0 0 1 0-2.075c.574 0 1.035.466 1.035 1.04 0 .57-.46 1.035-1.035 1.035" fill="#aa243f" fill-rule="evenodd" data-name="Path 918"></path><path d="M337.533 144.844a1.039 1.039 0 0 1 0-2.075 1.039 1.039 0 0 1 0 2.075" fill="#aa243f" fill-rule="evenodd" data-name="Path 919"></path><path d="M333.441 144.844a1.037 1.037 0 1 1 .004-2.074 1.037 1.037 0 0 1-.004 2.074" fill="#aa243f" fill-rule="evenodd" data-name="Path 920"></path><path d="M329.356 144.844a1.038 1.038 0 1 1 .001-2.077 1.038 1.038 0 0 1-.001 2.077" fill="#aa243f" fill-rule="evenodd" data-name="Path 921"></path><path d="M325.266 144.844a1.037 1.037 0 1 1 .001-2.074 1.037 1.037 0 0 1-.001 2.074" fill="#aa243f" fill-rule="evenodd" data-name="Path 922"></path><path d="M128.771 174.8h-15.33" fill="#aa243f" fill-rule="evenodd" data-name="Line 8"></path><path d="M118.931 182.45h-10.65c-1.529 0-2.767 1.295-2.767 2.888v10.809c0 .868 1.086 2.005 2.416.93l-.037.047.08-.079c.04-.034.074-.048.113-.085l.089-.12c1.71-1.707 11.42-11.419 12.003-12 .638-.64.672-2.33-1.247-2.39" fill="#aa243f" fill-rule="evenodd" data-name="Path 923"></path><path d="m159.246 142.095-40.312-40.311c-1.107-1.106-2.864-1.148-3.925-.086l-7.32 7.32c-1.06 1.06-1.022 2.818.086 3.925l29.13 29.132v.014c1.108 1.107 1.147 2.864.087 3.924l-13.646 13.592.02.005c-.029.025-.057.036-.085.062-.026.024-.06.06-.06.06l.027-.036c-.94.762-1.97.022-2.047-.604v-14.524c0-1.569-1.178-2.837-2.63-2.837h-10.03c-1.453 0-2.63 1.268-2.63 2.837v27.98c0 1.18 1.058 2.147 2.405 2.244.057.003 9.789.004 14.183.004v.003h4.888c1.57 0 3.196-.752 4.881-2.187l.019-.006.065-.064c.316-.272.633-.559.953-.878.97-.972 2.26-2.263 3.352-3.353l22.675-22.292c1.06-1.06 1.021-2.818-.086-3.924" fill="#aa243f" fill-rule="evenodd" data-name="Path 924"></path></g></g></g><defs><clipPath id="a"><path d="M0 0h402.11v284.32H0V0z" data-name="Rectangle 761"></path></clipPath></defs></svg>